solid windows (Meshed)
  facet normal 0.804064 0.000000 0.594542
    outer loop
      vertex 49.885303 -32.950001 7.587532
      vertex 9.019342 32.049999 62.855042
      vertex 9.019342 -32.950001 62.855042
    endloop
  endfacet
  facet normal 0.804064 -0.000000 0.594542
    outer loop
      vertex 49.885303 -32.950001 7.587532
      vertex 49.885303 32.049999 7.587532
      vertex 9.019342 32.049999 62.855042
    endloop
  endfacet
  facet normal -0.793141 0.000000 0.609038
    outer loop
      vertex -50.005920 32.049999 8.732925
      vertex -8.740373 -32.950001 62.472385
      vertex -8.740373 32.049999 62.472385
    endloop
  endfacet
  facet normal -0.793141 0.000000 0.609038
    outer loop
      vertex -50.005920 32.049999 8.732925
      vertex -50.005920 -32.950001 8.732925
      vertex -8.740373 -32.950001 62.472385
    endloop
  endfacet
  facet normal -0.804100 0.000000 -0.594494
    outer loop
      vertex -50.166679 -32.049999 -8.323339
      vertex -9.886600 32.950001 -62.805355
      vertex -9.886600 -32.049999 -62.805355
    endloop
  endfacet
  facet normal -0.804100 0.000000 -0.594494
    outer loop
      vertex -50.166679 -32.049999 -8.323339
      vertex -50.166679 32.950001 -8.323339
      vertex -9.886600 32.950001 -62.805355
    endloop
  endfacet
  facet normal 0.793104 0.000000 -0.609086
    outer loop
      vertex 49.728840 32.950001 -8.997213
      vertex 7.863202 -32.049999 -63.511368
      vertex 7.863202 32.950001 -63.511368
    endloop
  endfacet
  facet normal 0.793104 0.000000 -0.609086
    outer loop
      vertex 49.728840 32.950001 -8.997213
      vertex 49.728840 -32.049999 -8.997213
      vertex 7.863202 -32.049999 -63.511368
    endloop
  endfacet
  facet normal 0.000000 1.000000 0.000000
    outer loop
      vertex -1.610272 -42.450001 -51.727577
      vertex 0.358015 -42.450001 42.968273
      vertex 46.731876 -42.450001 -4.260755
    endloop
  endfacet
  facet normal -0.000000 1.000000 0.000000
    outer loop
      vertex -47.984131 -42.450001 -4.498549
      vertex 0.358015 -42.450001 42.968273
      vertex -1.610272 -42.450001 -51.727577
    endloop
  endfacet
  facet normal 0.000000 -1.000000 0.000000
    outer loop
      vertex -0.423656 42.450001 -43.470268
      vertex -0.667149 42.450001 51.245728
      vertex -47.893387 42.450001 4.869025
    endloop
  endfacet
  facet normal 0.000000 -1.000000 0.000000
    outer loop
      vertex -0.423656 42.450001 -43.470268
      vertex 46.802582 42.450001 2.906435
      vertex -0.667149 42.450001 51.245728
    endloop
  endfacet
endsolid Mesh
