solid Compound003 (Meshed)
  facet normal 0.798635 -0.000000 0.601815
    outer loop
      vertex 8.445851 -36.549999 62.937172
      vertex 52.438629 36.549999 4.556786
      vertex 8.445851 36.549999 62.937172
    endloop
  endfacet
  facet normal 0.798635 0.000000 0.601815
    outer loop
      vertex 8.445851 -36.549999 62.937172
      vertex 52.438629 -36.549999 4.556786
      vertex 52.438629 36.549999 4.556786
    endloop
  endfacet
  facet normal 0.798635 0.000000 -0.601815
    outer loop
      vertex -9.309660 36.549999 62.393349
      vertex -53.302437 -36.549999 4.012963
      vertex -53.302437 36.549999 4.012963
    endloop
  endfacet
  facet normal 0.798635 0.000000 -0.601815
    outer loop
      vertex -9.309660 -36.549999 62.393349
      vertex -53.302437 -36.549999 4.012963
      vertex -9.309660 36.549999 62.393349
    endloop
  endfacet
  facet normal 0.798635 -0.000000 0.601815
    outer loop
      vertex -53.302437 -36.549999 -4.514861
      vertex -9.309660 36.549999 -62.895248
      vertex -53.302437 36.549999 -4.514861
    endloop
  endfacet
  facet normal 0.798635 0.000000 0.601815
    outer loop
      vertex -53.302437 -36.549999 -4.514861
      vertex -9.309660 -36.549999 -62.895248
      vertex -9.309660 36.549999 -62.895248
    endloop
  endfacet
  facet normal 0.798635 0.000000 -0.601815
    outer loop
      vertex 8.445851 36.549999 -63.439072
      vertex 52.438629 -36.549999 -5.058684
      vertex 8.445851 -36.549999 -63.439072
    endloop
  endfacet
  facet normal 0.798635 0.000000 -0.601815
    outer loop
      vertex 8.445851 36.549999 -63.439072
      vertex 52.438629 36.549999 -5.058684
      vertex 52.438629 -36.549999 -5.058684
    endloop
  endfacet
  facet normal 0.000000 1.000000 0.000000
    outer loop
      vertex -0.577516 36.549999 54.657001
      vertex 0.324539 36.549999 -49.906910
      vertex -52.408443 36.549999 2.826073
    endloop
  endfacet
  facet normal 0.000000 1.000000 0.000000
    outer loop
      vertex -0.577516 36.549999 54.657001
      vertex 52.155464 36.549999 1.924018
      vertex 0.324539 36.549999 -49.906910
    endloop
  endfacet
  facet normal 0.000000 -1.000000 0.000000
    outer loop
      vertex -0.577516 -36.549999 -55.158897
      vertex 0.324539 -36.549999 49.405010
      vertex -52.408443 -36.549999 -3.327971
    endloop
  endfacet
  facet normal 0.000000 -1.000000 0.000000
    outer loop
      vertex -0.577516 -36.549999 -55.158897
      vertex 52.155464 -36.549999 -2.425915
      vertex 0.324539 -36.549999 49.405010
    endloop
  endfacet
endsolid Mesh
